<?xml version="1.0" encoding="utf-8"?>
<!-- Generator: Adobe Illustrator 22.0.0, SVG Export Plug-In . SVG Version: 6.00 Build 0)  -->
<svg version="1.1" id="Layer_1" xmlns="http://www.w3.org/2000/svg" xmlns:xlink="http://www.w3.org/1999/xlink" x="0px" y="0px"
	 viewBox="0 0 370 119" style="enable-background:new 0 0 370 119;" xml:space="preserve">
<style type="text/css">
	.st0{fill:#19E0BA;}
	.st1{fill:#233345;stroke:#233345;stroke-miterlimit:10;}
</style>
<title>Artboard 1 copy</title>
<path class="st0" d="M106.2,28.6c-2.9-7.2-7.9-13.4-15.4-16.7c-8-3.4-17-4.1-25.4-2c-15.8,3.7-28,16-31.7,31.8
	c-0.4,2-0.8,3.9-1.2,5.9l-5.1,27.4c-5.9,2-11.2,5.7-15.2,10.6c-4.4,5.7-7.6,14.9-4.7,21.9c2.5,5.9,9.4,8.7,15.3,6.1
	c0.3-0.1,0.6-0.3,0.9-0.4c4.2-2.1,6.2-5.9,7-10.1c1.1-6.2,2.3-11.8,3.4-17.9c-3.3,0.6-6.4,1.8-9.2,3.6c-0.6,3-1.1,5.4-1.7,8.4
	c-0.4,2-0.5,4.6-1.3,6.6c-0.6,1.7-2.3,2.8-4.1,2.7c-0.6,0-1.1-0.2-1.6-0.6c-0.8-0.8-1.2-1.8-1.2-2.9c0-0.6,0-1.2,0-1.8
	c0-0.6,0.1-1.1,0.1-1.6c0-0.1,0.1-0.4,0.1-0.6c0.1-0.5,0.2-1,0.4-1.6c1.2-4.4,3.9-8.3,7.7-11c0.7-0.5,1.5-1,2.2-1.4l0,0
	c2.8-1.6,5.9-2.7,9.1-3.3h0.1c6.2-1.2,12.7-0.9,19.1-1.1c7.6-0.2,15.1-1.3,22.5-3.3c9.3-2.6,18.5-7.1,24.5-14.6
	C108.3,53.4,110.6,39.5,106.2,28.6L106.2,28.6z M98.2,50.2L98.2,50.2c-1.4,4.1-4,7.8-7.4,10.6C84.6,66.2,76,69,67.3,70.6
	c-1,0.2-2.1,0.4-3.1,0.5l-1.3,0.2l-0.4,0.1L62,71.5c-1.7,0.2-3.3,0.4-5,0.5c-2.1,0.1-4.1,0.2-6.2,0.2c-4.8-0.1-9.7,0.1-14.5,0.5
	l4-21.4l0.3-1.6c1.2-5.5,2.2-11,5.1-16c3.8-6.5,9.7-11.5,16.6-14.4c14-5.6,33.1-1.6,36.6,14.4C100.2,39.2,100,44.8,98.2,50.2
	L98.2,50.2z"/>
<path class="st1" d="M147.5,43.4c-5.2-0.1-10.2,1.9-13.8,5.6c-3.7,3.5-5.8,8.4-5.7,13.4v33.1c0,0.7,0.3,1.4,0.8,1.9
	c0.5,0.5,1.2,0.8,1.9,0.8c0.7,0,1.4-0.3,1.9-0.8c0.5-0.5,0.8-1.2,0.8-1.9V75.6l1.1,1c7.8,6.8,19.4,6.4,26.9-0.7
	c7.4-7.1,7.7-18.9,0.5-26.4c-0.2-0.2-0.3-0.3-0.5-0.5C157.7,45.3,152.7,43.3,147.5,43.4L147.5,43.4z M157.5,72.1L157.5,72.1
	c-5.6,5.4-14.4,5.4-20,0c-5.4-5.1-5.6-13.6-0.4-19c0.1-0.1,0.3-0.3,0.4-0.4c5.6-5.4,14.4-5.4,20,0c5.4,5.1,5.6,13.6,0.4,19
	C157.8,71.8,157.7,71.9,157.5,72.1z"/>
<path class="st1" d="M221.9,28.4c-0.5-0.5-1.2-0.8-1.9-0.8c-0.7,0-1.4,0.3-1.9,0.8c-0.5,0.5-0.8,1.2-0.8,1.9v32.1
	c-0.1,5.1,2,9.9,5.7,13.4c7.7,7.5,19.9,7.5,27.6,0c7.4-7.1,7.7-18.9,0.5-26.4c-0.2-0.2-0.3-0.3-0.5-0.5c-3.7-3.6-8.7-5.6-13.8-5.6
	c-4.8,0-9.4,1.7-13,4.8l-1.1,0.9V30.2C222.7,29.5,222.4,28.9,221.9,28.4L221.9,28.4z M226.9,52.6L226.9,52.6c5.6-5.4,14.4-5.4,20,0
	c5.4,5.1,5.6,13.6,0.4,19c-0.1,0.1-0.3,0.3-0.4,0.4c-5.6,5.4-14.4,5.4-20,0c-5.4-5.1-5.6-13.6-0.4-19
	C226.6,52.9,226.7,52.8,226.9,52.6z"/>
<path class="st1" d="M267.6,28.4c-0.5-0.5-1.2-0.8-1.9-0.8c-0.7,0-1.4,0.3-1.9,0.8c-0.5,0.5-0.8,1.2-0.8,1.9v32.1
	c-0.1,5.1,2,9.9,5.7,13.4c7.7,7.5,19.9,7.5,27.6,0c7.4-7.1,7.7-18.9,0.5-26.4c-0.2-0.2-0.3-0.3-0.5-0.5c-3.7-3.6-8.7-5.6-13.8-5.6
	c-4.8,0-9.4,1.7-13,4.8l-1.1,0.9V30.2C268.4,29.5,268.1,28.9,267.6,28.4L267.6,28.4z M272.6,52.6L272.6,52.6c5.6-5.4,14.4-5.4,20,0
	c5.4,5.1,5.6,13.6,0.4,19c-0.1,0.1-0.3,0.3-0.4,0.4c-5.6,5.4-14.4,5.4-20,0c-5.4-5.1-5.6-13.6-0.4-19
	C272.3,52.9,272.4,52.8,272.6,52.6z"/>
<path class="st1" d="M313.1,27.6c-0.7,0-1.4,0.3-1.9,0.8c-0.5,0.5-0.8,1.2-0.8,1.9v48.5c0,0.7,0.3,1.4,0.8,1.9
	c0.5,0.5,1.2,0.8,1.9,0.8c1.5,0,2.7-1.2,2.7-2.7V30.2c0-0.7-0.3-1.4-0.8-1.9C314.5,27.9,313.9,27.6,313.1,27.6z"/>
<path class="st1" d="M205.3,48.9c-7.7-7.4-19.9-7.4-27.6,0c-7.4,7.1-7.6,19-0.5,26.4c0.2,0.2,0.3,0.3,0.5,0.5
	c3.8,3.7,8.9,5.7,14.2,5.6c2.6,0,5.2-0.4,7.7-1.1c2.3-0.7,4.5-1.8,6.5-3.2c0.6-0.4,0.9-1.1,1-1.8c0.1-0.7-0.2-1.4-0.6-1.9
	c-0.5-0.5-1.1-0.9-1.9-0.9c-0.7-0.1-1.4,0.1-2,0.6l0,0c-1.5,1-3.2,1.8-4.9,2.3c-1.9,0.5-3.9,0.8-5.8,0.8c-3.8,0.1-7.6-1.3-10.3-4
	c-1.4-1.4-2.5-3-3.2-4.8v-0.1c-1-2.4-1.2-5-0.6-7.5l0,0l0.2-0.9c0.1-0.4,0.3-0.9,0.4-1.3l0.2-0.4c0.7-1.7,1.8-3.2,3.1-4.5
	c5.6-5.4,14.4-5.4,20,0c1.8,1.7,3.1,3.9,3.7,6.3l0.2,0.8h-17.8c-1.5-0.1-2.7,1-2.8,2.5c-0.1,1.5,1,2.7,2.5,2.8c0.1,0,0.2,0,0.3,0
	h20.6c0.7,0,1.4-0.3,1.9-0.8c0.5-0.5,0.8-1.2,0.8-1.9C211,57.3,209,52.4,205.3,48.9z"/>
<path class="st1" d="M357.8,48.9c-7.7-7.4-19.9-7.4-27.6,0c-7.4,7.1-7.6,19-0.5,26.4c0.2,0.2,0.3,0.3,0.5,0.5
	c3.8,3.7,8.9,5.7,14.2,5.6c2.6,0,5.2-0.4,7.7-1.1c2.3-0.7,4.6-1.8,6.6-3.2c0.6-0.4,0.9-1.1,1-1.8c0.1-0.7-0.2-1.4-0.6-1.9
	c-0.5-0.5-1.1-0.9-1.9-0.9c-0.7-0.1-1.4,0.1-2,0.6l0,0c-1.5,1-3.1,1.8-4.9,2.3c-1.9,0.5-3.9,0.8-5.8,0.8c-3.8,0.1-7.6-1.3-10.3-4
	c-1.4-1.4-2.5-3-3.2-4.8v-0.1c-1-2.4-1.2-5-0.6-7.5l0,0l0.2-0.9c0.1-0.4,0.3-0.9,0.4-1.3l0.2-0.4c0.7-1.7,1.8-3.2,3.1-4.5
	c5.6-5.4,14.4-5.4,20,0c1.8,1.7,3.1,3.9,3.7,6.3l0.2,0.8h-17.8c-1.5-0.1-2.7,1-2.8,2.5c-0.1,1.5,1,2.7,2.5,2.8c0.1,0,0.2,0,0.3,0
	h20.6c0.7,0,1.4-0.3,1.9-0.8c0.5-0.5,0.8-1.2,0.8-1.9C363.5,57.3,361.5,52.4,357.8,48.9z"/>
</svg>
